<svg width="1440" height="238" viewBox="0 0 1440 238" fill="none" xmlns="http://www.w3.org/2000/svg">
<rect x="0.5" y="38.5" width="1439" height="199" fill="#FAFAFA" stroke="#D8D8D8"/>
<path d="M1441.65 184.483C1461.59 170.427 1466.67 143.328 1453.01 123.956C1439.34 104.584 1412.11 100.274 1392.18 114.33C1372.25 128.386 1367.17 155.485 1380.83 174.857C1394.49 194.23 1421.72 198.539 1441.65 184.483Z" fill="#FAD34F"/>
<path d="M1413.17 129.788C1414.09 131.097 1412.64 131.219 1411.29 132.169C1409.94 133.119 1409.21 134.541 1408.29 133.229C1407.36 131.917 1407.71 130.087 1409.06 129.137C1410.4 128.185 1412.24 128.476 1413.17 129.788Z" fill="white"/>
<path d="M1422.49 123.213C1423.41 124.523 1421.96 124.644 1420.61 125.594C1419.27 126.544 1418.54 127.966 1417.61 126.654C1416.69 125.342 1417.03 123.513 1418.38 122.562C1419.73 121.61 1421.57 121.901 1422.49 123.213Z" fill="white"/>
<path d="M1424.47 130.934C1426.27 133.492 1425.6 137.072 1422.97 138.928C1420.34 140.784 1416.74 140.215 1414.93 137.657C1413.13 135.098 1417.19 136.329 1419.83 134.473C1422.46 132.617 1422.66 128.376 1424.47 130.934Z" fill="white"/>
<path d="M1312.46 95.7675C1312.46 117.435 1294.9 135 1273.23 135V135C1251.56 135 1234 117.435 1234 95.7675V38H1312.46V95.7675Z" fill="#46EBB0"/>
<path d="M1272.01 107.05C1272.01 104.241 1274.29 107.05 1277.1 107.05C1279.91 107.05 1282.19 104.241 1282.19 107.05C1282.19 109.859 1279.91 112.14 1277.1 112.14C1274.29 112.14 1272.01 109.862 1272.01 107.05Z" fill="white"/>
<path d="M1255.99 107.05C1255.99 104.241 1258.26 107.05 1261.08 107.05C1263.89 107.05 1266.17 104.241 1266.17 107.05C1266.17 109.859 1263.89 112.14 1261.08 112.14C1258.26 112.14 1255.99 109.862 1255.99 107.05Z" fill="white"/>
<path d="M1261.09 96.2664C1261.09 91.0982 1265.28 86.9108 1270.44 86.9108C1275.61 86.9108 1279.8 91.1008 1279.8 96.2664C1279.8 101.432 1275.61 95.9055 1270.44 95.9055C1265.28 95.9055 1261.09 101.432 1261.09 96.2664Z" fill="white"/>
<path d="M233.884 225.942C190.22 265.761 123.448 263.637 84.745 221.198C46.0418 178.758 50.0634 112.073 93.7274 72.2535C137.391 32.4338 204.163 34.5579 242.867 76.9977C281.57 119.438 277.548 186.122 233.884 225.942Z" fill="#F472B7"/>
<path d="M119.344 129.984C121.961 132.853 123.006 129.478 125.957 126.787C128.909 124.095 132.654 123.11 130.033 120.236C127.412 117.362 122.903 117.223 119.952 119.915C116.995 122.602 116.723 127.11 119.344 129.984Z" fill="white"/>
<path d="M98.9198 148.61C101.536 151.479 102.581 148.105 105.533 145.413C108.485 142.721 112.23 141.736 109.609 138.862C106.988 135.988 102.479 135.85 99.527 138.541C96.5707 141.228 96.2989 145.736 98.9198 148.61Z" fill="white"/>
<path d="M116.157 157.316C121.268 162.92 130.087 163.201 135.854 157.942C141.62 152.684 142.151 143.876 137.04 138.272C131.929 132.667 132.72 142.925 126.954 148.183C121.187 153.442 111.046 151.711 116.157 157.316Z" fill="white"/>
</svg>
