<svg width="13" height="14" viewBox="0 0 13 14" fill="none" xmlns="http://www.w3.org/2000/svg">
<path d="M2.88053 13.2365H0.212521V4.59095H2.88053V13.2365V13.2365ZM1.54509 3.41162C0.692131 3.41162 0 2.70056 0 1.84208C0 0.983599 0.692131 0.286987 1.54509 0.286987C2.39805 0.286987 3.09018 0.983599 3.09018 1.84208C3.09018 2.70056 2.39805 3.41162 1.54509 3.41162ZM12.8662 13.2365H10.2039V9.02788C10.2039 8.02487 10.1838 6.7386 8.81677 6.7386C7.42964 6.7386 7.21711 7.82832 7.21711 8.95561V13.2365H4.55198V4.59095H7.11085V5.77028H7.14819C7.5043 5.09101 8.37449 4.37416 9.6726 4.37416C12.3722 4.37416 12.869 6.16339 12.869 8.48735V13.2365H12.8662Z" fill="#696969"/>
</svg>
