<svg width="17" height="14" viewBox="0 0 17 14" fill="none" xmlns="http://www.w3.org/2000/svg">
<path d="M15.0399 3.49418C15.0501 3.63493 15.0501 3.77571 15.0501 3.91646C15.0501 8.20947 11.7328 13.156 5.66983 13.156C3.80192 13.156 2.06673 12.6231 0.607117 11.6982C0.87251 11.7284 1.12766 11.7384 1.40327 11.7384C2.94451 11.7384 4.36331 11.2257 5.4963 10.351C4.0469 10.3208 2.83225 9.3858 2.41375 8.09889C2.61791 8.12903 2.82204 8.14915 3.03641 8.14915C3.3324 8.14915 3.62843 8.10892 3.904 8.03858C2.39336 7.73693 1.26034 6.42994 1.26034 4.85147V4.81127C1.69923 5.05256 2.20963 5.20337 2.75056 5.22345C1.86254 4.64031 1.28076 3.64499 1.28076 2.51894C1.28076 1.91571 1.44405 1.36275 1.72986 0.880154C3.35279 2.85072 5.7923 4.13761 8.52776 4.27839C8.47674 4.03709 8.44611 3.78577 8.44611 3.53441C8.44611 1.74479 9.91593 0.286987 11.743 0.286987C12.6922 0.286987 13.5496 0.67909 14.1519 1.31249C14.897 1.17174 15.6114 0.90027 16.2443 0.528283C15.9993 1.28235 15.4788 1.91574 14.7949 2.31787C15.4584 2.24753 16.1014 2.06652 16.6934 1.8152C16.2444 2.45862 15.683 3.03167 15.0399 3.49418V3.49418Z" fill="#696969"/>
</svg>
